<svg width="200" height="200" viewBox="0 0 200 200" fill="none" xmlns="http://www.w3.org/2000/svg">
  <!-- Background circle -->
  <circle cx="100" cy="100" r="100" fill="#E5E7EB"/>
  
  <!-- Head -->
  <circle cx="100" cy="80" r="40" fill="#9CA3AF"/>
  
  <!-- Body -->
  <ellipse cx="100" cy="160" rx="35" ry="50" fill="#9CA3AF"/>
  
  <!-- Eyes -->
  <circle cx="85" cy="75" r="6" fill="#374151"/>
  <circle cx="115" cy="75" r="6" fill="#374151"/>
  
  <!-- Glasses frames -->
  <circle cx="85" cy="75" r="12" fill="none" stroke="#374151" stroke-width="2"/>
  <circle cx="115" cy="75" r="12" fill="none" stroke="#374151" stroke-width="2"/>
  <line x1="97" y1="75" x2="103" y2="75" stroke="#374151" stroke-width="2"/>
  
  <!-- Smile -->
  <path d="M 85 90 Q 100 105 115 90" stroke="#374151" stroke-width="2" fill="none"/>
  
  <!-- Lab coat -->
  <rect x="70" y="120" width="60" height="60" fill="white" stroke="#9CA3AF" stroke-width="2"/>
  <rect x="75" y="125" width="50" height="15" fill="#E5E7EB"/>
  
  <!-- Stethoscope -->
  <path d="M 60 100 Q 50 90 60 80 Q 70 70 80 80" stroke="#374151" stroke-width="3" fill="none"/>
  <path d="M 140 100 Q 150 90 140 80 Q 130 70 120 80" stroke="#374151" stroke-width="3" fill="none"/>
  <circle cx="80" cy="80" r="8" fill="#374151"/>
  <circle cx="120" cy="80" r="8" fill="#374151"/>
</svg>
